PSF_ID_stride5.mot
nRows=10
nColumns=38

name PSF_ID_stride5.mot
datacolumns 38
datarows 10
range 3.1000000000 3.1450000000
endheader
time	pelvis_tilt_moment	pelvis_list_moment	pelvis_rotation_moment	pelvis_tx_force	pelvis_ty_force	pelvis_tz_force	hip_flexion_r_moment	hip_adduction_r_moment	hip_rotation_r_moment	knee_angle_r_moment	ankle_angle_r_moment	subtalar_angle_r_moment	mtp_angle_r_moment	hip_flexion_l_moment	hip_adduction_l_moment	hip_rotation_l_moment	knee_angle_l_moment	ankle_angle_l_moment	subtalar_angle_l_moment	mtp_angle_l_moment	lumbar_extension_moment	lumbar_bending_moment	lumbar_rotation_moment	arm_flex_r_moment	arm_add_r_moment	arm_rot_r_moment	elbow_flex_r_moment	pro_sup_r_moment	wrist_flex_r_moment	wrist_dev_r_moment	arm_flex_l_moment	arm_add_l_moment	arm_rot_l_moment	elbow_flex_l_moment	pro_sup_l_moment	wrist_flex_l_moment	wrist_dev_l_moment
        3.1000000000	        8.7164734069	      -18.1704005207	        5.1347928847	       62.7768084219	      -94.1471247939	      -74.9566200325	        6.8423834376	      -57.8621722665	       28.9280159044	        6.1991585519	     -187.3752035321	       44.4258814479	       -0.0531152169	       -7.7381917192	       -2.7335253169	       -2.1872708919	       -0.1081890901	        2.2191845961	       -0.2103833090	        0.1333778779	        2.4395761202	        2.2133640679	      -42.1622521960	       -0.3300439465	       -3.2614123153	       -4.1209244211	        4.0730829258	       -0.2170867798	       -0.3777961404	       -0.4264336816	        7.9272766939	        6.3783219732	        4.6213069820	        4.3974639308	        0.0496082309	        0.5722035594	       -0.2489349585	
        3.1050000000	        7.1591119268	      -23.2185675294	        2.1464340384	       49.9970618567	      -97.6660799410	      -54.8896053831	        6.8701121402	      -52.6521586538	       26.0794428973	       -0.8743699990	     -173.0260783421	       40.5048323690	       -0.0624789903	      -10.0684033267	       -3.6417852603	       -2.0130378156	       -0.6848798976	        2.2706639979	       -0.2567040789	        0.1353438640	       -2.0614883723	        2.5077278329	      -41.8473157254	       -0.8090633403	       -3.1518535201	       -4.0081319512	        3.4544149222	       -0.2042026067	       -0.3768320079	       -0.3721738882	        7.6328981055	        5.8089464255	        4.3851774668	        3.9139458604	        0.0559375333	        0.5436361310	       -0.2088234589	
        3.1100000000	        2.0099756516	      -24.4880933038	       -4.1382658498	       33.9380320560	      -97.3852779889	      -36.2573475376	        7.9594867750	      -41.3125510582	       19.9345224338	       -5.5133771140	     -157.4177407624	       36.2959619947	       -0.0692790160	      -13.2046238908	       -3.9871823804	       -1.6043985004	       -1.6050373010	        2.3133449850	       -0.3215692280	        0.1375493426	       -5.6045996033	        3.6177438401	      -40.9140879347	       -1.3159577446	       -2.9092972740	       -3.7612285959	        2.8439022693	       -0.1884634421	       -0.3712486945	       -0.3165266739	        7.1561856748	        5.1404509029	        4.0641407705	        3.4518673151	        0.0595265426	        0.5067639999	       -0.1724695228	
        3.1150000000	       -8.9070504806	      -21.9710870991	      -12.0622361200	       18.2617177901	      -83.9891093254	      -21.0288060014	       13.6400006691	      -26.5787272965	       12.1708037992	       -8.5585253917	     -141.1592481279	       32.2555215620	       -0.0726546692	      -16.7900075076	       -3.7656742529	       -1.0189653584	       -2.7989878799	        2.3499334917	       -0.3956057841	        0.1401713357	       -8.0989512660	        6.7595626744	      -38.8772998962	       -1.8531274445	       -2.5558466756	       -3.4016227538	        2.2481179371	       -0.1698479982	       -0.3483573548	       -0.2599520172	        6.4946233445	        4.3739618007	        3.6603754475	        3.0153298078	        0.0608874531	        0.4617916107	       -0.1402041710	
        3.1200000000	      -17.4373001580	      -19.4103637694	      -18.3582730034	        7.4444027583	      -63.5461477841	       -8.5982085643	       17.8313498756	      -14.0438849006	        5.9752997233	      -12.8272220796	     -125.5299743655	       28.8236214520	       -0.0702900268	      -20.0556333835	       -2.2494243731	       -0.4954536146	       -3.9949778239	        2.3905463363	       -0.4630517819	        0.1434162301	       -9.4180517528	       10.6031042988	      -36.1800526988	       -2.3979206126	       -2.0992867724	       -2.9494739149	        1.6780697748	       -0.1489836447	       -0.3158292704	       -0.2038430135	        5.6991182066	        3.5235213937	        3.1899116570	        2.6042883144	        0.0597016096	        0.4104995003	       -0.1119997045	
        3.1250000000	      -18.7314829106	      -17.4981699523	      -20.0616086989	        3.2131163487	      -41.7165621676	        2.4752331681	       18.9115696648	       -7.0822216881	        3.8350470762	      -18.9590013531	     -110.7862093942	       25.7182832022	       -0.0609971697	      -22.5598100343	        0.5269064694	       -0.1782091476	       -4.9586712720	        2.4355666608	       -0.5105524547	        0.1469991952	       -9.0860009755	       14.4633329834	      -32.9203583639	       -2.9320690156	       -1.5381460718	       -2.4135832354	        1.1362811179	       -0.1259342263	       -0.2741549091	       -0.1486808301	        4.7919115489	        2.5878799963	        2.6576288850	        2.2081835131	        0.0564040957	        0.3533522203	       -0.0871912163	
        3.1300000000	      -15.7721180232	      -13.1837521464	      -18.6187594569	        3.1773005762	      -28.3160563801	       12.1339820908	       19.7147729121	       -5.5881598258	        4.7321928181	      -25.3348959588	      -96.1414357147	       22.3508861424	       -0.0431987117	      -23.9623015605	        4.5090853938	       -0.1903799106	       -5.4750555459	        2.4843951007	       -0.5139082968	        0.1505640628	       -7.5320729082	       17.6699735681	      -29.2106307340	       -3.4483286821	       -0.8806550446	       -1.8062363427	        0.6137317871	       -0.1006269482	       -0.2247647309	       -0.0939435107	        3.7843060213	        1.5703006244	        2.0711791844	        1.8056933957	        0.0512557021	        0.2907940310	       -0.0639820586	
        3.1350000000	       -8.7366392628	       -3.3348028462	      -15.6139371754	        2.9719029608	      -27.8397515888	       20.2518648294	       21.9009545578	       -4.4880805159	        6.3525933683	      -27.7959296404	      -80.8626125826	       18.6204226359	       -0.0161450773	      -24.5615948823	        9.4192707484	       -0.3877732767	       -5.5604641155	        2.5202986788	       -0.4979359252	        0.1527082276	       -4.3797485071	       19.0203965881	      -25.1604341210	       -3.9427676108	       -0.1490764335	       -1.1458731276	        0.0976850536	       -0.0730752123	       -0.1696875996	       -0.0387428051	        2.6823921016	        0.4877942771	        1.4447294411	        1.3730576610	        0.0449107667	        0.2236499874	       -0.0401076875	
        3.1400000000	       -1.7273983459	       13.9084198352	      -13.5282264236	        0.0466303789	      -43.0967560531	       27.3787141856	       28.2228796421	       -1.8985075272	        7.1623020834	      -28.2331198437	      -64.8703365919	       14.7887001483	        0.0199446796	      -24.8531763883	       14.8600018743	       -0.8540302613	       -5.4829262936	        2.5401849377	       -0.4295630389	        0.1536621134	       -0.1352082262	       19.3967414114	      -20.8925104292	       -4.4121236070	        0.6240247003	       -0.4562670481	       -0.4179867660	       -0.0437494333	       -0.1113686593	        0.0171825463	        1.5067908877	       -0.6299416619	        0.7973488167	        0.9005400087	        0.0379978249	        0.1534484508	       -0.0142851365	
        3.1450000000	        2.2519920586	       32.8099086714	      -14.7863547521	       -7.4288545272	      -70.2344158013	       35.8941179232	       35.4048699341	        5.1010485434	        5.2508645064	      -26.1152444514	      -49.3441297472	       11.9225238023	        0.0628880994	      -25.6548490536	       20.1560301215	       -1.3407671825	       -5.6370570437	        2.5199583012	       -0.3377166782	        0.1518946745	        4.3178400488	       17.9907811886	      -16.5988993983	       -4.8353856791	        1.3778436525	        0.2192114371	       -0.9310785339	       -0.0138755935	       -0.0539157530	        0.0732547654	        0.3063995537	       -1.7185569575	        0.1654364140	        0.3871658523	        0.0313581629	        0.0833308830	        0.0147180797	
